<svg width="52" height="52" viewBox="0 0 52 52" fill="none" xmlns="http://www.w3.org/2000/svg">
<path d="M3.20934 18.8498L6.1887 22.0379L23.2168 30.8779L24.7888 36.7661C23.4653 37.5626 22.4654 38.8005 21.9651 40.2619C21.4648 41.7233 21.4962 43.3143 22.0538 44.7548C22.6114 46.1953 23.6595 47.3928 25.0134 48.1364C26.3672 48.88 27.9401 49.122 29.4549 48.8198C30.9697 48.5175 32.3292 47.6904 33.2941 46.4842C34.2589 45.278 34.7671 43.7699 34.7292 42.2257C34.6914 40.6816 34.1098 39.2003 33.0869 38.0428C32.0641 36.8853 30.6656 36.1259 29.1378 35.8984L28.0046 30.4624L30.982 28.7301L35.4681 29.9677C35.5927 31.5112 36.2625 32.9601 37.3576 34.055C38.4528 35.1499 39.9018 35.8194 41.4454 35.9436C42.989 36.0679 44.5264 35.6388 45.7826 34.7332C47.0388 33.8276 47.9317 32.5045 48.3016 31.0007C48.6715 29.497 48.4942 27.9107 47.8015 26.5256C47.1088 25.1406 45.9458 24.0473 44.5207 23.4413C43.0957 22.8353 41.5014 22.7562 40.0233 23.2181C38.5452 23.68 37.2797 24.6528 36.4533 25.9625L5.33476 16.8636L3.20934 18.8498ZM30.8308 39.8855C31.3218 40.411 31.646 41.0702 31.7624 41.78C31.8787 42.4897 31.782 43.218 31.4845 43.8727C31.187 44.5275 30.7019 45.0793 30.0908 45.4584C29.4796 45.8375 28.7698 46.0269 28.051 46.0025C27.3322 45.9782 26.6368 45.7413 26.0526 45.3217C25.4685 44.9021 25.0219 44.3188 24.7693 43.6454C24.5167 42.972 24.4695 42.2389 24.6336 41.5386C24.7977 40.8384 25.1657 40.2026 25.6912 39.7115C26.0401 39.3855 26.4498 39.1314 26.8969 38.9636C27.344 38.7959 27.8198 38.7179 28.297 38.7341C28.7743 38.7502 29.2437 38.8602 29.6784 39.0578C30.1131 39.2554 30.5047 39.5366 30.8308 39.8855ZM44.646 26.975C45.137 27.5004 45.4612 28.1597 45.5776 28.8694C45.694 29.5791 45.5973 30.3074 45.2997 30.9622C45.0022 31.6169 44.5171 32.1687 43.906 32.5478C43.2948 32.9269 42.585 33.1163 41.8662 33.092C41.1474 33.0676 40.452 32.8307 39.8679 32.4112C39.2837 31.9916 38.8371 31.4082 38.5845 30.7349C38.332 30.0615 38.2847 29.3283 38.4488 28.6281C38.6129 27.9279 38.9809 27.292 39.5064 26.801C40.211 26.1425 41.1484 25.7909 42.1122 25.8235C43.0761 25.8562 43.9875 26.2703 44.646 26.975ZM25.647 25.8173C25.8434 26.0275 25.9731 26.2912 26.0196 26.5751C26.0662 26.859 26.0275 27.1503 25.9085 27.4122C25.7894 27.6741 25.5954 27.8948 25.351 28.0465C25.1065 28.1981 24.8226 28.2738 24.535 28.2641C24.2475 28.2544 23.9694 28.1596 23.7357 27.9918C23.5021 27.824 23.3234 27.5906 23.2224 27.3213C23.1214 27.0519 23.1025 26.7586 23.1681 26.4786C23.2337 26.1985 23.3809 25.9441 23.5911 25.7477C23.873 25.4843 24.2479 25.3437 24.6335 25.3567C25.019 25.3698 25.3836 25.5354 25.647 25.8173Z" fill="white"/>
<path d="M20.4226 19.7116L28.8204 22.283L22.1293 7.14113L19.1506 3.95367L17.0246 5.93925L20.4226 19.7116Z" fill="white"/>
</svg>
