<svg width="32" height="41" viewBox="0 0 32 41" fill="none" xmlns="http://www.w3.org/2000/svg">
<path fill-rule="evenodd" clip-rule="evenodd" d="M4.52533 1.00437C2.91127 1.21559 2.05842 1.60416 1.44866 2.19996C0.840902 2.79776 0.444363 3.63468 0.227163 5.21485C0.003985 6.84286 0 8.99891 0 12.0895V29.1666C0.789047 28.6279 1.66452 28.2282 2.58846 27.985C3.64059 27.708 4.86807 27.708 6.66744 27.71H31.8825V12.0915C31.8825 8.99891 31.8786 6.84286 31.6554 5.21485C31.4382 3.63468 31.0416 2.79776 30.4339 2.19996C29.8241 1.60416 28.9713 1.21559 27.3572 1.00437C25.6953 0.785174 23.4954 0.781189 20.3391 0.781189H11.5435C8.3871 0.781189 6.18721 0.785174 4.52533 1.00437ZM5.49775 9.93746C5.49775 9.04474 6.23503 8.32141 7.14567 8.32141H24.7369C25.1692 8.31769 25.5854 8.48547 25.8943 8.78799C26.2031 9.09052 26.3795 9.50314 26.3848 9.93546C26.3801 10.3681 26.2039 10.7813 25.895 11.0842C25.586 11.3872 25.1695 11.5552 24.7369 11.5515H7.14567C6.71334 11.5552 6.29715 11.3875 5.98827 11.0849C5.67939 10.7824 5.503 10.3698 5.49775 9.93746ZM7.14567 15.8616C6.71334 15.8579 6.29715 16.0257 5.98827 16.3282C5.67939 16.6307 5.503 17.0434 5.49775 17.4757C5.49775 18.3684 6.23503 19.0917 7.14567 19.0917H18.1392C18.5719 19.096 18.9886 18.9284 19.2979 18.6259C19.6072 18.3233 19.7838 17.9103 19.7891 17.4777C19.7844 17.0447 19.6079 16.6312 19.2986 16.3282C18.9892 16.0252 18.5722 15.8574 18.1392 15.8616H7.14567Z" fill="#FFF0DC"/>
<path d="M6.9205 30.9401H31.8825C31.8766 33.1918 31.8407 34.8736 31.6574 36.2007C31.4402 37.7809 31.0436 38.6178 30.4359 39.2156C29.8261 39.8114 28.9733 40.2 27.3592 40.4112C25.6973 40.6304 23.4974 40.6344 20.3411 40.6344H11.5435C8.3871 40.6344 6.1872 40.6304 4.52532 40.4132C2.91127 40.2 2.05841 39.8114 1.44866 39.2156C0.8409 38.6178 0.44436 37.7809 0.22716 36.2007C0.145461 35.6029 0.0916598 34.9314 0.0597773 34.1682C0.332902 33.4218 0.783422 32.753 1.37252 32.2195C1.96161 31.6859 2.67161 31.3036 3.44132 31.1055C4.01919 30.954 4.77042 30.9401 6.9205 30.9401Z" fill="#FFF0DC"/>
</svg>
