<svg width="41" height="40" viewBox="0 0 41 40" fill="none" xmlns="http://www.w3.org/2000/svg">
<path fill-rule="evenodd" clip-rule="evenodd" d="M11.9936 8.88889C11.9936 6.53141 12.9302 4.27048 14.5971 2.60349C16.2641 0.936505 18.5251 0 20.8825 0C23.24 0 25.5009 0.936505 27.1679 2.60349C28.8349 4.27048 29.7714 6.53141 29.7714 8.88889C29.7714 11.2464 28.8349 13.5073 27.1679 15.1743C25.5009 16.8413 23.24 17.7778 20.8825 17.7778C18.5251 17.7778 16.2641 16.8413 14.5971 15.1743C12.9302 13.5073 11.9936 11.2464 11.9936 8.88889ZM11.9936 22.2222C9.0468 22.2222 6.22064 23.3929 4.13691 25.4766C2.05317 27.5603 0.882538 30.3865 0.882538 33.3333C0.882538 35.1014 1.58492 36.7971 2.83516 38.0474C4.0854 39.2976 5.7811 40 7.5492 40H34.2159C35.984 40 37.6797 39.2976 38.9299 38.0474C40.1802 36.7971 40.8825 35.1014 40.8825 33.3333C40.8825 30.3865 39.7119 27.5603 37.6282 25.4766C35.5444 23.3929 32.7183 22.2222 29.7714 22.2222H11.9936Z" fill="#FFF0DC"/>
</svg>
